<svg xmlns="http://www.w3.org/2000/svg" xmlns:xlink="http://www.w3.org/1999/xlink" width="100" zoomAndPan="magnify" viewBox="0 0 75 74.999997" height="100" preserveAspectRatio="xMidYMid meet" version="1.0"><defs><clipPath id="8c9a48803c"><path d="M 9.125 9.125 L 65.726562 9.125 L 65.726562 65.726562 L 9.125 65.726562 Z M 9.125 9.125 " clip-rule="nonzero"/></clipPath><clipPath id="b3b1998521"><path d="M 37.425781 9.125 C 21.796875 9.125 9.125 21.796875 9.125 37.425781 C 9.125 53.058594 21.796875 65.726562 37.425781 65.726562 C 53.058594 65.726562 65.726562 53.058594 65.726562 37.425781 C 65.726562 21.796875 53.058594 9.125 37.425781 9.125 Z M 37.425781 9.125 " clip-rule="nonzero"/></clipPath><clipPath id="de28440049"><path d="M 19.746094 19.746094 L 55.464844 19.746094 L 55.464844 55.464844 L 19.746094 55.464844 Z M 19.746094 19.746094 " clip-rule="nonzero"/></clipPath><clipPath id="a1eca52540"><path d="M 37.605469 19.746094 C 27.742188 19.746094 19.746094 27.742188 19.746094 37.605469 C 19.746094 47.46875 27.742188 55.464844 37.605469 55.464844 C 47.46875 55.464844 55.464844 47.46875 55.464844 37.605469 C 55.464844 27.742188 47.46875 19.746094 37.605469 19.746094 Z M 37.605469 19.746094 " clip-rule="nonzero"/></clipPath><clipPath id="4fcbb98d5f"><path d="M 42 35 L 47.746094 35 L 47.746094 40 L 42 40 Z M 42 35 " clip-rule="nonzero"/></clipPath><clipPath id="c55f685f8f"><path d="M 45 35 L 47.746094 35 L 47.746094 38 L 45 38 Z M 45 35 " clip-rule="nonzero"/></clipPath><clipPath id="1f81b7969e"><path d="M 44 35 L 47.746094 35 L 47.746094 39 L 44 39 Z M 44 35 " clip-rule="nonzero"/></clipPath><clipPath id="8a5b1a4541"><path d="M 28 25.609375 L 47 25.609375 L 47 49.609375 L 28 49.609375 Z M 28 25.609375 " clip-rule="nonzero"/></clipPath><clipPath id="8fc0c03613"><path d="M 28 42 L 47 42 L 47 49.609375 L 28 49.609375 Z M 28 42 " clip-rule="nonzero"/></clipPath><clipPath id="728266f077"><path d="M 28 25.609375 L 47 25.609375 L 47 49.609375 L 28 49.609375 Z M 28 25.609375 " clip-rule="nonzero"/></clipPath></defs><g clip-path="url(#8c9a48803c)"><g clip-path="url(#b3b1998521)"><path fill="#d2a2f4" d="M 9.125 9.125 L 65.726562 9.125 L 65.726562 65.726562 L 9.125 65.726562 Z M 9.125 9.125 " fill-opacity="1" fill-rule="nonzero"/></g></g><g clip-path="url(#de28440049)"><g clip-path="url(#a1eca52540)"><path fill="#755a89" d="M 19.746094 19.746094 L 55.464844 19.746094 L 55.464844 55.464844 L 19.746094 55.464844 Z M 19.746094 19.746094 " fill-opacity="1" fill-rule="nonzero"/></g></g><path fill="#000000" d="M 75 36.992188 L 66.796875 36.992188 C 66.53125 21.234375 53.765625 8.46875 38.007812 8.203125 L 38.007812 0 L 36.992188 0 L 36.992188 8.203125 C 21.234375 8.46875 8.46875 21.234375 8.203125 36.992188 L 0 36.992188 L 0 38.007812 L 8.203125 38.007812 C 8.46875 53.765625 21.234375 66.53125 36.992188 66.796875 L 36.992188 75 L 38.007812 75 L 38.007812 66.796875 C 53.765625 66.53125 66.53125 53.765625 66.796875 38.007812 L 75 38.007812 Z M 65.785156 36.992188 L 56.214844 36.992188 C 55.949219 27.074219 47.925781 19.050781 38.007812 18.785156 L 38.007812 9.214844 C 53.203125 9.484375 65.515625 21.792969 65.785156 36.992188 Z M 55.199219 38.007812 C 54.933594 47.367188 47.367188 54.933594 38.007812 55.199219 L 38.007812 45.007812 L 36.992188 45.007812 L 36.992188 55.199219 C 27.632812 54.933594 20.066406 47.367188 19.800781 38.007812 L 29.992188 38.007812 L 29.992188 36.992188 L 19.800781 36.992188 C 20.066406 27.632812 27.632812 20.066406 36.992188 19.800781 L 36.992188 29.992188 L 38.007812 29.992188 L 38.007812 19.800781 C 47.367188 20.066406 54.933594 27.632812 55.199219 36.992188 L 45.007812 36.992188 L 45.007812 38.007812 Z M 36.992188 9.214844 L 36.992188 18.785156 C 27.074219 19.050781 19.050781 27.074219 18.785156 36.992188 L 9.214844 36.992188 C 9.484375 21.792969 21.792969 9.484375 36.992188 9.214844 Z M 9.214844 38.007812 L 18.785156 38.007812 C 19.050781 47.925781 27.074219 55.949219 36.992188 56.214844 L 36.992188 65.785156 C 21.792969 65.515625 9.484375 53.203125 9.214844 38.007812 Z M 38.007812 65.785156 L 38.007812 56.214844 C 47.925781 55.949219 55.949219 47.925781 56.214844 38.007812 L 65.785156 38.007812 C 65.515625 53.203125 53.203125 65.515625 38.007812 65.785156 Z M 35.472656 35.472656 L 39.527344 35.472656 L 39.527344 39.527344 L 35.472656 39.527344 Z M 35.472656 35.472656 " fill-opacity="1" fill-rule="nonzero"/><g clip-path="url(#4fcbb98d5f)"><path fill="#f5f6f5" d="M 46.398438 37.734375 C 46.636719 37.460938 46.851562 37.15625 46.96875 36.8125 C 47.082031 36.46875 47.085938 36.074219 46.910156 35.753906 C 46.734375 35.433594 46.363281 35.214844 46.003906 35.28125 C 45.792969 35.320312 45.609375 35.449219 45.433594 35.574219 C 44.902344 35.953125 44.375 36.328125 43.84375 36.703125 C 43.625 36.863281 43.398438 37.023438 43.230469 37.238281 C 42.957031 37.59375 42.867188 38.0625 42.898438 38.511719 C 42.917969 38.777344 42.957031 39.535156 43.234375 39.667969 C 43.496094 39.796875 44.140625 39.410156 44.378906 39.292969 C 45.148438 38.917969 45.839844 38.382812 46.398438 37.734375 " fill-opacity="1" fill-rule="nonzero"/></g><g clip-path="url(#c55f685f8f)"><path fill="#dbdad8" d="M 46.386719 37.75 L 46.386719 37.75 M 46.390625 37.746094 L 46.390625 37.746094 M 46.394531 37.742188 L 46.394531 37.742188 M 46.394531 37.738281 C 46.398438 37.738281 46.398438 37.738281 46.398438 37.734375 C 46.636719 37.460938 46.851562 37.15625 46.96875 36.8125 C 47.019531 36.65625 47.046875 36.488281 47.046875 36.324219 C 47.046875 36.488281 47.019531 36.65625 46.96875 36.8125 C 46.851562 37.15625 46.636719 37.460938 46.398438 37.734375 C 46.398438 37.738281 46.398438 37.738281 46.394531 37.738281 M 45.171875 35.761719 C 45.195312 35.746094 45.21875 35.726562 45.242188 35.710938 C 45.21875 35.726562 45.195312 35.746094 45.171875 35.761719 " fill-opacity="1" fill-rule="nonzero"/></g><g clip-path="url(#1f81b7969e)"><path fill="#cfcecd" d="M 44.996094 38.945312 C 45.007812 37.960938 45.035156 36.917969 45.03125 35.859375 C 45.078125 35.828125 45.125 35.792969 45.171875 35.761719 C 45.195312 35.746094 45.21875 35.726562 45.242188 35.710938 C 45.175781 36.140625 45.144531 36.578125 45.140625 37.011719 C 45.136719 37.210938 45.300781 37.355469 45.480469 37.355469 C 45.53125 37.355469 45.582031 37.34375 45.632812 37.316406 C 45.964844 37.148438 46.253906 36.90625 46.476562 36.605469 C 46.671875 36.339844 46.8125 36.03125 46.882812 35.707031 C 46.894531 35.722656 46.902344 35.738281 46.910156 35.753906 C 47.007812 35.929688 47.046875 36.125 47.046875 36.324219 C 47.046875 36.488281 47.019531 36.65625 46.96875 36.8125 C 46.851562 37.15625 46.636719 37.460938 46.398438 37.734375 C 46.398438 37.738281 46.398438 37.738281 46.394531 37.738281 C 46.394531 37.738281 46.394531 37.742188 46.394531 37.742188 C 46.390625 37.742188 46.390625 37.746094 46.390625 37.746094 C 46.390625 37.746094 46.386719 37.746094 46.386719 37.75 C 45.984375 38.210938 45.515625 38.617188 44.996094 38.945312 " fill-opacity="1" fill-rule="nonzero"/></g><path fill="#f5f6f5" d="M 29.078125 37.734375 C 28.839844 37.460938 28.625 37.15625 28.511719 36.8125 C 28.394531 36.46875 28.390625 36.074219 28.566406 35.753906 C 28.742188 35.433594 29.117188 35.214844 29.472656 35.28125 C 29.6875 35.320312 29.867188 35.449219 30.042969 35.574219 C 30.574219 35.953125 31.101562 36.328125 31.632812 36.703125 C 31.855469 36.863281 32.078125 37.023438 32.246094 37.238281 C 32.519531 37.59375 32.609375 38.0625 32.578125 38.511719 C 32.5625 38.777344 32.519531 39.535156 32.246094 39.667969 C 31.980469 39.796875 31.335938 39.410156 31.097656 39.292969 C 30.332031 38.917969 29.636719 38.382812 29.078125 37.734375 " fill-opacity="1" fill-rule="nonzero"/><path fill="#dbdad8" d="M 29.191406 37.859375 C 29.191406 37.859375 29.1875 37.859375 29.1875 37.859375 C 29.1875 37.859375 29.191406 37.859375 29.191406 37.859375 M 29.1875 37.859375 C 29.1875 37.859375 29.1875 37.855469 29.183594 37.855469 C 29.1875 37.855469 29.1875 37.859375 29.1875 37.859375 M 29.183594 37.855469 C 29.183594 37.855469 29.183594 37.851562 29.183594 37.851562 C 29.183594 37.851562 29.183594 37.855469 29.183594 37.855469 M 29.183594 37.851562 C 29.148438 37.8125 29.113281 37.773438 29.078125 37.734375 C 28.839844 37.460938 28.625 37.15625 28.511719 36.8125 C 28.5 36.785156 28.492188 36.753906 28.484375 36.726562 C 28.492188 36.753906 28.5 36.785156 28.511719 36.8125 C 28.625 37.15625 28.839844 37.460938 29.078125 37.734375 C 29.113281 37.773438 29.148438 37.8125 29.183594 37.851562 M 28.484375 36.726562 L 28.484375 36.726562 M 28.484375 36.722656 L 28.484375 36.722656 M 30.546875 35.929688 C 30.464844 35.871094 30.378906 35.8125 30.296875 35.753906 C 30.378906 35.8125 30.464844 35.871094 30.546875 35.929688 " fill-opacity="1" fill-rule="nonzero"/><path fill="#cfcecd" d="M 30.511719 38.964844 C 30.023438 38.660156 29.578125 38.289062 29.191406 37.859375 C 29.191406 37.859375 29.1875 37.859375 29.1875 37.859375 C 29.1875 37.859375 29.1875 37.855469 29.183594 37.855469 C 29.183594 37.855469 29.183594 37.851562 29.183594 37.851562 C 29.148438 37.8125 29.113281 37.773438 29.078125 37.734375 C 28.839844 37.460938 28.625 37.15625 28.511719 36.8125 C 28.5 36.785156 28.492188 36.753906 28.484375 36.726562 C 28.484375 36.722656 28.484375 36.722656 28.484375 36.722656 C 28.398438 36.410156 28.40625 36.070312 28.550781 35.785156 C 28.570312 35.800781 28.570312 35.859375 28.578125 35.898438 C 28.597656 35.980469 28.621094 36.066406 28.644531 36.148438 C 28.757812 36.511719 28.929688 36.855469 29.15625 37.164062 C 29.226562 37.265625 29.308594 37.363281 29.410156 37.425781 C 29.484375 37.472656 29.566406 37.5 29.652344 37.5 C 29.691406 37.5 29.726562 37.496094 29.765625 37.480469 C 29.929688 37.421875 30.011719 37.238281 30.050781 37.070312 C 30.132812 36.734375 30.121094 36.378906 30.199219 36.042969 C 30.21875 35.945312 30.253906 35.847656 30.296875 35.753906 C 30.378906 35.8125 30.464844 35.871094 30.546875 35.929688 C 30.46875 37.078125 30.476562 38.128906 30.511719 38.964844 " fill-opacity="1" fill-rule="nonzero"/><g clip-path="url(#8a5b1a4541)"><path fill="#f5f6f5" d="M 38.320312 25.6875 C 47.75 25.785156 44.066406 38.128906 45.28125 42.871094 C 46.183594 46.394531 46.886719 48.351562 45.628906 48.824219 C 44.960938 49.074219 44.304688 48.546875 43.714844 48.023438 C 43.191406 47.554688 42.726562 47.089844 42.355469 47.164062 C 41.570312 47.320312 40.648438 49.609375 39.027344 49.609375 C 37.660156 49.609375 37.613281 46.707031 36.671875 46.707031 C 35.726562 46.707031 34.496094 49.609375 32.820312 49.214844 C 30.90625 48.769531 32.503906 46.707031 31.484375 46.3125 C 30.996094 46.125 30.390625 46.414062 29.828125 46.699219 C 29.210938 47.015625 28.644531 47.328125 28.339844 47.019531 C 27.5 46.160156 30.765625 43.34375 30.527344 39.28125 C 30.304688 35.378906 30.699219 25.609375 38.320312 25.6875 " fill-opacity="1" fill-rule="nonzero"/></g><path fill="#100f0d" d="M 36.765625 32.445312 C 36.765625 33.203125 36.148438 33.820312 35.390625 33.820312 C 34.628906 33.820312 34.011719 33.203125 34.011719 32.445312 C 34.011719 31.6875 34.628906 31.070312 35.390625 31.070312 C 36.148438 31.070312 36.765625 31.6875 36.765625 32.445312 " fill-opacity="1" fill-rule="nonzero"/><path fill="#ffffff" d="M 35.429688 31.980469 C 35.429688 32.183594 35.261719 32.347656 35.058594 32.347656 C 34.855469 32.347656 34.6875 32.183594 34.6875 31.980469 C 34.6875 31.773438 34.855469 31.609375 35.058594 31.609375 C 35.261719 31.609375 35.429688 31.773438 35.429688 31.980469 " fill-opacity="1" fill-rule="nonzero"/><path fill="#100f0d" d="M 42.175781 32.445312 C 42.175781 33.203125 41.558594 33.820312 40.800781 33.820312 C 40.039062 33.820312 39.421875 33.203125 39.421875 32.445312 C 39.421875 31.6875 40.039062 31.070312 40.800781 31.070312 C 41.558594 31.070312 42.175781 31.6875 42.175781 32.445312 " fill-opacity="1" fill-rule="nonzero"/><path fill="#100f0d" d="M 38.09375 35.433594 C 37.570312 35.433594 37.144531 34.941406 37.144531 34.335938 C 37.144531 34.269531 37.199219 34.214844 37.265625 34.214844 C 37.332031 34.214844 37.390625 34.269531 37.390625 34.335938 C 37.390625 34.804688 37.707031 35.1875 38.09375 35.1875 C 38.484375 35.1875 38.800781 34.804688 38.800781 34.335938 C 38.800781 34.269531 38.855469 34.214844 38.921875 34.214844 C 38.992188 34.214844 39.046875 34.269531 39.046875 34.335938 C 39.046875 34.941406 38.621094 35.433594 38.09375 35.433594 " fill-opacity="1" fill-rule="nonzero"/><path fill="#ffffff" d="M 40.800781 31.980469 C 40.800781 32.183594 40.632812 32.347656 40.429688 32.347656 C 40.226562 32.347656 40.0625 32.183594 40.0625 31.980469 C 40.0625 31.773438 40.226562 31.609375 40.429688 31.609375 C 40.632812 31.609375 40.800781 31.773438 40.800781 31.980469 " fill-opacity="1" fill-rule="nonzero"/><g clip-path="url(#8fc0c03613)"><path fill="#dbdad8" d="M 39.027344 49.609375 C 40.375 49.609375 41.242188 48.019531 41.949219 47.398438 C 41.242188 48.023438 40.375 49.609375 39.027344 49.609375 M 33.132812 49.253906 L 33.132812 49.253906 M 33.132812 49.253906 C 34.226562 49.25 35.125 47.929688 35.871094 47.191406 C 35.125 47.929688 34.226562 49.253906 33.132812 49.253906 M 45.304688 48.886719 C 45.410156 48.882812 45.515625 48.863281 45.625 48.824219 C 45.515625 48.863281 45.410156 48.882812 45.304688 48.886719 M 45.625 48.824219 C 45.625 48.824219 45.628906 48.824219 45.628906 48.824219 C 46.117188 48.640625 46.308594 48.234375 46.308594 47.597656 C 46.308594 48.234375 46.117188 48.640625 45.628906 48.824219 C 45.628906 48.824219 45.625 48.824219 45.625 48.824219 M 43.710938 48.019531 C 43.710938 48.019531 43.710938 48.015625 43.707031 48.015625 C 43.710938 48.015625 43.710938 48.019531 43.710938 48.019531 M 43.699219 48.007812 C 43.695312 48.003906 43.691406 48 43.683594 47.996094 C 43.691406 48 43.695312 48.003906 43.699219 48.007812 M 43.667969 47.980469 C 43.664062 47.976562 43.664062 47.976562 43.660156 47.976562 C 43.664062 47.976562 43.664062 47.976562 43.667969 47.980469 M 43.65625 47.96875 L 43.65625 47.96875 M 43.652344 47.964844 L 43.652344 47.964844 M 43.648438 47.964844 C 43.648438 47.960938 43.648438 47.960938 43.644531 47.960938 C 43.648438 47.960938 43.648438 47.960938 43.648438 47.964844 M 43.628906 47.945312 L 43.628906 47.945312 M 42.355469 47.164062 C 42.382812 47.160156 42.410156 47.15625 42.4375 47.15625 C 42.410156 47.15625 42.382812 47.160156 42.355469 47.164062 M 42.4375 47.15625 L 42.4375 47.15625 M 28.664062 47.148438 L 28.664062 47.148438 M 28.691406 47.144531 C 28.859375 47.140625 29.054688 47.074219 29.265625 46.980469 C 29.054688 47.074219 28.859375 47.140625 28.691406 47.144531 M 28.34375 47.023438 C 28.34375 47.019531 28.34375 47.019531 28.339844 47.019531 C 28.34375 47.019531 28.34375 47.019531 28.34375 47.023438 M 28.339844 47.019531 C 28.339844 47.019531 28.339844 47.019531 28.339844 47.015625 C 28.339844 47.019531 28.339844 47.019531 28.339844 47.019531 M 28.339844 47.015625 C 28.339844 47.015625 28.335938 47.015625 28.335938 47.015625 C 28.335938 47.015625 28.339844 47.015625 28.339844 47.015625 M 28.335938 47.015625 C 28.335938 47.015625 28.335938 47.015625 28.335938 47.011719 C 28.335938 47.015625 28.335938 47.015625 28.335938 47.015625 M 28.335938 47.011719 C 28.316406 46.996094 28.304688 46.976562 28.289062 46.957031 C 28.304688 46.976562 28.316406 46.996094 28.335938 47.011719 M 28.289062 46.957031 L 28.289062 46.957031 M 28.289062 46.957031 C 28.289062 46.957031 28.289062 46.953125 28.289062 46.953125 C 28.289062 46.953125 28.289062 46.957031 28.289062 46.957031 M 28.285156 46.953125 L 28.285156 46.953125 M 28.285156 46.953125 C 28.285156 46.953125 28.285156 46.953125 28.285156 46.949219 C 28.285156 46.953125 28.285156 46.953125 28.285156 46.953125 M 28.285156 46.949219 L 28.285156 46.949219 M 28.285156 46.949219 L 28.285156 46.949219 M 28.28125 46.949219 C 28.28125 46.949219 28.28125 46.945312 28.28125 46.945312 C 28.28125 46.945312 28.28125 46.949219 28.28125 46.949219 M 28.28125 46.945312 L 28.28125 46.945312 M 28.28125 46.945312 L 28.28125 46.945312 M 28.28125 46.941406 L 28.28125 46.941406 M 28.277344 46.941406 L 28.277344 46.941406 M 28.277344 46.9375 L 28.277344 46.9375 M 30.128906 46.550781 C 30.472656 46.386719 30.820312 46.253906 31.140625 46.253906 C 30.820312 46.253906 30.472656 46.386719 30.128906 46.550781 M 31.480469 46.3125 L 31.480469 46.3125 M 31.144531 46.253906 L 31.144531 46.253906 M 45.28125 42.867188 L 45.28125 42.867188 M 45.28125 42.867188 C 45.28125 42.863281 45.28125 42.863281 45.28125 42.863281 C 45.28125 42.863281 45.28125 42.863281 45.28125 42.867188 M 45.277344 42.863281 C 45.277344 42.863281 45.277344 42.859375 45.277344 42.859375 C 45.277344 42.859375 45.277344 42.863281 45.277344 42.863281 M 45.277344 42.859375 C 45.277344 42.859375 45.277344 42.859375 45.277344 42.855469 C 45.277344 42.855469 45.277344 42.859375 45.277344 42.859375 M 45.277344 42.855469 L 45.277344 42.855469 M 45.277344 42.851562 L 45.277344 42.851562 M 45.277344 42.847656 L 45.277344 42.847656 M 45.273438 42.84375 L 45.273438 42.84375 M 45.273438 42.839844 L 45.273438 42.839844 M 45.273438 42.835938 L 45.273438 42.835938 M 45.273438 42.832031 L 45.273438 42.832031 M 45.269531 42.828125 L 45.269531 42.828125 M 45.269531 42.824219 L 45.269531 42.824219 M 45.269531 42.820312 L 45.269531 42.820312 M 45.269531 42.816406 C 45.269531 42.816406 45.269531 42.816406 45.265625 42.816406 C 45.269531 42.816406 45.269531 42.816406 45.269531 42.816406 M 45.265625 42.8125 L 45.265625 42.8125 M 45.265625 42.808594 L 45.265625 42.808594 M 45.265625 42.804688 L 45.265625 42.804688 M 45.265625 42.800781 L 45.265625 42.800781 M 45.261719 42.796875 L 45.261719 42.796875 M 45.261719 42.796875 L 45.261719 42.792969 L 45.261719 42.796875 M 45.257812 42.777344 L 45.257812 42.777344 M 45.257812 42.773438 L 45.257812 42.773438 M 45.257812 42.769531 L 45.257812 42.769531 M 45.253906 42.765625 L 45.253906 42.765625 M 45.253906 42.761719 L 45.253906 42.761719 " fill-opacity="1" fill-rule="nonzero"/></g><g clip-path="url(#728266f077)"><path fill="#cfcecd" d="M 39.027344 49.609375 C 37.660156 49.609375 37.613281 46.707031 36.671875 46.707031 C 36.425781 46.707031 36.160156 46.902344 35.871094 47.191406 C 35.125 47.929688 34.226562 49.25 33.132812 49.253906 C 33.03125 49.253906 32.925781 49.242188 32.820312 49.214844 C 31.964844 49.015625 31.8125 48.496094 31.8125 47.945312 C 31.8125 47.632812 31.863281 47.308594 31.863281 47.03125 C 31.863281 46.699219 31.792969 46.433594 31.484375 46.3125 C 31.484375 46.3125 31.480469 46.3125 31.480469 46.3125 C 31.371094 46.273438 31.261719 46.253906 31.144531 46.253906 C 31.144531 46.253906 31.144531 46.253906 31.140625 46.253906 C 30.820312 46.253906 30.472656 46.386719 30.128906 46.550781 C 30.027344 46.601562 29.925781 46.648438 29.828125 46.699219 C 29.632812 46.800781 29.441406 46.898438 29.265625 46.980469 C 29.054688 47.074219 28.859375 47.140625 28.691406 47.144531 C 28.683594 47.148438 28.675781 47.148438 28.664062 47.148438 C 28.539062 47.144531 28.429688 47.109375 28.34375 47.023438 C 28.34375 47.019531 28.34375 47.019531 28.339844 47.019531 C 28.339844 47.019531 28.339844 47.019531 28.339844 47.015625 C 28.339844 47.015625 28.335938 47.015625 28.335938 47.015625 C 28.335938 47.015625 28.335938 47.015625 28.335938 47.011719 C 28.316406 46.996094 28.304688 46.976562 28.289062 46.957031 C 28.289062 46.957031 28.289062 46.953125 28.289062 46.953125 C 28.285156 46.953125 28.285156 46.953125 28.285156 46.953125 C 28.285156 46.953125 28.285156 46.953125 28.285156 46.949219 C 28.28125 46.949219 28.28125 46.949219 28.28125 46.949219 C 28.28125 46.949219 28.28125 46.945312 28.28125 46.945312 C 28.28125 46.945312 28.28125 46.945312 28.28125 46.941406 C 28.28125 46.941406 28.28125 46.941406 28.277344 46.941406 C 28.277344 46.941406 28.277344 46.941406 28.277344 46.9375 C 28.113281 46.675781 28.234375 46.273438 28.484375 45.746094 C 28.664062 45.828125 28.859375 45.871094 29.058594 45.871094 C 29.183594 45.871094 29.304688 45.855469 29.429688 45.816406 C 29.863281 45.679688 30.203125 45.359375 30.601562 45.144531 C 30.808594 45.035156 31.054688 44.964844 31.289062 44.964844 C 31.507812 44.964844 31.710938 45.027344 31.863281 45.183594 C 32.320312 45.65625 31.90625 46.519531 32.269531 47.070312 C 32.433594 47.316406 32.710938 47.425781 33.007812 47.425781 C 33.3125 47.425781 33.632812 47.316406 33.867188 47.125 C 34.335938 46.75 34.59375 46.179688 34.945312 45.691406 C 35.261719 45.25 35.738281 44.847656 36.265625 44.847656 C 36.320312 44.847656 36.378906 44.851562 36.4375 44.859375 C 37.089844 44.972656 37.445312 45.660156 37.753906 46.246094 C 38.039062 46.792969 38.503906 47.382812 39.09375 47.382812 C 39.140625 47.382812 39.1875 47.378906 39.234375 47.371094 C 40.023438 47.242188 39.917969 46.082031 40.464844 45.5 C 40.757812 45.1875 40.960938 45.015625 41.359375 45.015625 C 41.382812 45.015625 41.410156 45.015625 41.4375 45.015625 C 41.472656 45.019531 41.507812 45.019531 41.542969 45.019531 C 42.363281 45.019531 43.105469 44.503906 43.179688 43.683594 C 43.46875 40.476562 43.5625 37.027344 43.28125 33.820312 C 43.105469 31.808594 42.824219 30.1875 41.617188 27.808594 C 41.21875 27.019531 40.746094 26.402344 40.292969 25.921875 C 47.148438 27.644531 44.210938 38.320312 45.253906 42.761719 C 45.253906 42.765625 45.253906 42.765625 45.253906 42.765625 C 45.257812 42.769531 45.257812 42.769531 45.257812 42.769531 C 45.257812 42.769531 45.257812 42.773438 45.257812 42.773438 C 45.257812 42.773438 45.257812 42.777344 45.257812 42.777344 C 45.257812 42.777344 45.257812 42.78125 45.257812 42.78125 C 45.261719 42.785156 45.261719 42.789062 45.261719 42.792969 L 45.261719 42.796875 C 45.265625 42.800781 45.265625 42.800781 45.265625 42.800781 C 45.265625 42.804688 45.265625 42.804688 45.265625 42.804688 C 45.265625 42.808594 45.265625 42.808594 45.265625 42.808594 C 45.265625 42.808594 45.265625 42.8125 45.265625 42.8125 C 45.265625 42.8125 45.265625 42.816406 45.265625 42.816406 C 45.269531 42.816406 45.269531 42.816406 45.269531 42.816406 C 45.269531 42.816406 45.269531 42.816406 45.269531 42.820312 C 45.269531 42.820312 45.269531 42.820312 45.269531 42.824219 C 45.269531 42.824219 45.269531 42.824219 45.269531 42.828125 C 45.269531 42.828125 45.269531 42.832031 45.273438 42.832031 C 45.273438 42.835938 45.273438 42.835938 45.273438 42.835938 C 45.273438 42.839844 45.273438 42.839844 45.273438 42.839844 C 45.273438 42.84375 45.273438 42.84375 45.273438 42.84375 C 45.273438 42.847656 45.273438 42.847656 45.277344 42.847656 C 45.277344 42.847656 45.277344 42.851562 45.277344 42.851562 C 45.277344 42.851562 45.277344 42.851562 45.277344 42.855469 C 45.277344 42.859375 45.277344 42.859375 45.277344 42.859375 C 45.277344 42.859375 45.277344 42.863281 45.277344 42.863281 C 45.28125 42.863281 45.28125 42.863281 45.28125 42.863281 C 45.28125 42.863281 45.28125 42.863281 45.28125 42.867188 C 45.28125 42.871094 45.28125 42.871094 45.28125 42.871094 C 45.832031 45.023438 46.308594 46.59375 46.308594 47.597656 C 46.308594 48.234375 46.117188 48.640625 45.628906 48.824219 C 45.628906 48.824219 45.625 48.824219 45.625 48.824219 C 45.515625 48.863281 45.410156 48.882812 45.304688 48.886719 C 45.292969 48.886719 45.285156 48.886719 45.277344 48.886719 C 44.730469 48.886719 44.199219 48.453125 43.714844 48.023438 C 43.714844 48.019531 43.714844 48.019531 43.710938 48.019531 C 43.710938 48.019531 43.710938 48.015625 43.707031 48.015625 C 43.707031 48.015625 43.703125 48.011719 43.699219 48.007812 C 43.695312 48.003906 43.691406 48 43.683594 47.996094 C 43.679688 47.988281 43.671875 47.984375 43.667969 47.980469 C 43.664062 47.976562 43.664062 47.976562 43.660156 47.976562 C 43.660156 47.972656 43.65625 47.972656 43.65625 47.96875 C 43.65625 47.96875 43.652344 47.96875 43.652344 47.964844 C 43.648438 47.964844 43.648438 47.964844 43.648438 47.964844 C 43.648438 47.960938 43.648438 47.960938 43.644531 47.960938 C 43.640625 47.957031 43.636719 47.949219 43.628906 47.945312 C 43.179688 47.539062 42.773438 47.15625 42.4375 47.15625 C 42.410156 47.15625 42.382812 47.160156 42.355469 47.164062 C 42.226562 47.191406 42.089844 47.277344 41.949219 47.398438 C 41.242188 48.019531 40.375 49.609375 39.027344 49.609375 " fill-opacity="1" fill-rule="nonzero"/></g></svg>